<svg width="700" height="500" viewBox="0 0 700 500" fill="none" xmlns="http://www.w3.org/2000/svg">
  <!-- Background -->
  <rect width="700" height="500" fill="#fefefe"/>
  
  <!-- Library shelves -->
  <g id="library">
    <!-- Shelf 1 -->
    <rect x="50" y="100" width="300" height="15" fill="#8b5cf6"/>
    <rect x="50" y="200" width="300" height="15" fill="#8b5cf6"/>
    <rect x="50" y="300" width="300" height="15" fill="#8b5cf6"/>
    <rect x="50" y="400" width="300" height="15" fill="#8b5cf6"/>
    
    <!-- Books on shelf 1 -->
    <rect x="60" y="80" width="25" height="120" fill="#ef4444"/>
    <rect x="90" y="85" width="25" height="115" fill="#3b82f6"/>
    <rect x="120" y="75" width="25" height="125" fill="#10b981"/>
    <rect x="150" y="90" width="25" height="110" fill="#f59e0b"/>
    <rect x="180" y="70" width="25" height="130" fill="#8b5cf6"/>
    <rect x="210" y="85" width="25" height="115" fill="#06b6d4"/>
    <rect x="240" y="80" width="25" height="120" fill="#ec4899"/>
    <rect x="270" y="75" width="25" height="125" fill="#84cc16"/>
    <rect x="300" y="90" width="25" height="110" fill="#f97316"/>
    
    <!-- Books on shelf 2 -->
    <rect x="60" y="180" width="25" height="120" fill="#1e40af"/>
    <rect x="90" y="175" width="25" height="125" fill="#dc2626"/>
    <rect x="120" y="185" width="25" height="115" fill="#059669"/>
    <rect x="150" y="170" width="25" height="130" fill="#d97706"/>
    <rect x="180" y="180" width="25" height="120" fill="#7c3aed"/>
    <rect x="210" y="175" width="25" height="125" fill="#0891b2"/>
    <rect x="240" y="185" width="25" height="115" fill="#be185d"/>
    <rect x="270" y="170" width="25" height="130" fill="#65a30d"/>
    <rect x="300" y="180" width="25" height="120" fill="#ea580c"/>
    
    <!-- Books on shelf 3 -->
    <rect x="60" y="280" width="25" height="120" fill="#2563eb"/>
    <rect x="90" y="275" width="25" height="125" fill="#b91c1c"/>
    <rect x="120" y="285" width="25" height="115" fill="#047857"/>
    <rect x="150" y="270" width="25" height="130" fill="#b45309"/>
    <rect x="180" y="280" width="25" height="120" fill="#6d28d9"/>
    <rect x="210" y="275" width="25" height="125" fill="#0e7490"/>
    <rect x="240" y="285" width="25" height="115" fill="#a21caf"/>
    <rect x="270" y="270" width="25" height="130" fill="#4d7c0f"/>
    <rect x="300" y="280" width="25" height="120" fill="#c2410c"/>
  </g>
  
  <!-- Digital resources -->
  <g id="digital">
    <!-- Laptop -->
    <rect x="400" y="150" width="200" height="130" rx="12" fill="#374151"/>
    <rect x="410" y="160" width="180" height="110" rx="6" fill="#111827"/>
    <rect x="420" y="170" width="160" height="90" rx="4" fill="#1f2937"/>
    
    <!-- Screen content -->
    <rect x="430" y="180" width="140" height="8" fill="#3b82f6"/>
    <rect x="430" y="195" width="100" height="4" fill="#e5e7eb"/>
    <rect x="430" y="205" width="120" height="4" fill="#e5e7eb"/>
    <rect x="430" y="215" width="80" height="4" fill="#e5e7eb"/>
    <rect x="430" y="225" width="110" height="4" fill="#e5e7eb"/>
    <rect x="430" y="235" width="90" height="4" fill="#e5e7eb"/>
    
    <!-- PDF icon -->
    <rect x="450" y="190" width="20" height="25" fill="#ef4444"/>
    <text x="460" y="207" text-anchor="middle" font-family="Arial" font-size="8" fill="#ffffff">PDF</text>
    
    <!-- Folder icons -->
    <rect x="480" y="190" width="20" height="15" fill="#fbbf24"/>
    <rect x="485" y="185" width="10" height="5" fill="#f59e0b"/>
    
    <rect x="510" y="190" width="20" height="15" fill="#10b981"/>
    <rect x="515" y="185" width="10" height="5" fill="#059669"/>
    
    <rect x="540" y="190" width="20" height="15" fill="#8b5cf6"/>
    <rect x="545" y="185" width="10" height="5" fill="#7c3aed"/>
  </g>
  
  <!-- Study materials -->
  <g id="materials">
    <!-- Notebook -->
    <rect x="450" y="320" width="80" height="100" rx="4" fill="#ffffff" stroke="#e5e7eb" stroke-width="2"/>
    <rect x="460" y="330" width="60" height="3" fill="#3b82f6"/>
    <rect x="460" y="340" width="50" height="2" fill="#6b7280"/>
    <rect x="460" y="350" width="55" height="2" fill="#6b7280"/>
    <rect x="460" y="360" width="45" height="2" fill="#6b7280"/>
    <rect x="460" y="370" width="60" height="2" fill="#6b7280"/>
    <rect x="460" y="380" width="40" height="2" fill="#6b7280"/>
    
    <!-- Spiral binding -->
    <circle cx="440" cy="340" r="3" fill="#d1d5db"/>
    <circle cx="440" cy="360" r="3" fill="#d1d5db"/>
    <circle cx="440" cy="380" r="3" fill="#d1d5db"/>
    <circle cx="440" cy="400" r="3" fill="#d1d5db"/>
    
    <!-- Pen -->
    <rect x="520" y="350" width="3" height="40" fill="#1e40af"/>
    <rect x="520" y="345" width="3" height="5" fill="#fbbf24"/>
    <circle cx="521.5" cy="392" r="2" fill="#374151"/>
  </g>
  
  <!-- Question papers -->
  <g id="papers">
    <rect x="380" y="350" width="60" height="80" rx="4" fill="#ffffff" stroke="#e5e7eb" stroke-width="2"/>
    <text x="410" y="370" text-anchor="middle" font-family="Arial" font-size="10" fill="#374151">PYQ</text>
    <text x="410" y="385" text-anchor="middle" font-family="Arial" font-size="8" fill="#6b7280">2023-24</text>
    
    <!-- Question marks -->
    <text x="390" y="400" font-family="Arial" font-size="12" fill="#3b82f6">Q1.</text>
    <text x="390" y="415" font-family="Arial" font-size="12" fill="#3b82f6">Q2.</text>
    
    <!-- Multiple papers stack -->
    <rect x="385" y="345" width="60" height="80" rx="4" fill="#ffffff" stroke="#e5e7eb" stroke-width="1" opacity="0.8"/>
    <rect x="390" y="340" width="60" height="80" rx="4" fill="#ffffff" stroke="#e5e7eb" stroke-width="1" opacity="0.6"/>
  </g>
  
  <!-- Lab equipment -->
  <g id="lab">
    <!-- Microscope -->
    <rect x="550" y="350" width="8" height="60" fill="#374151"/>
    <circle cx="554" cy="340" r="12" fill="#6b7280"/>
    <circle cx="554" cy="340" r="8" fill="#111827"/>
    <rect x="545" y="410" width="18" height="8" fill="#374151"/>
    
    <!-- Beaker -->
    <rect x="580" y="380" width="30" height="40" rx="4" fill="#ffffff" stroke="#e5e7eb" stroke-width="2"/>
    <rect x="585" y="385" width="20" height="20" fill="#3b82f6" opacity="0.3"/>
    <rect x="575" y="375" width="40" height="5" fill="#6b7280"/>
    
    <!-- Circuit board -->
    <rect x="620" y="370" width="50" height="30" fill="#10b981"/>
    <circle cx="630" cy="380" r="3" fill="#ffffff"/>
    <circle cx="645" cy="380" r="3" fill="#ffffff"/>
    <circle cx="660" cy="380" r="3" fill="#ffffff"/>
    <rect x="625" y="390" width="30" height="2" fill="#ffffff"/>
  </g>
  
  <!-- Categories labels -->
  <g id="labels">
    <rect x="60" y="50" width="80" height="25" rx="12" fill="#3b82f6"/>
    <text x="100" y="67" text-anchor="middle" font-family="Arial" font-size="12" fill="#ffffff">Textbooks</text>
    
    <rect x="420" y="120" width="80" height="25" rx="12" fill="#10b981"/>
    <text x="460" y="137" text-anchor="middle" font-family="Arial" font-size="12" fill="#ffffff">E-Resources</text>
    
    <rect x="380" y="320" width="80" height="25" rx="12" fill="#f59e0b"/>
    <text x="420" y="337" text-anchor="middle" font-family="Arial" font-size="12" fill="#ffffff">Exam Papers</text>
    
    <rect x="550" y="320" width="80" height="25" rx="12" fill="#8b5cf6"/>
    <text x="590" y="337" text-anchor="middle" font-family="Arial" font-size="12" fill="#ffffff">Lab Work</text>
  </g>
  
  <!-- Floating elements -->
  <g id="floating" opacity="0.6">
    <!-- Download icons -->
    <circle cx="150" cy="50" r="15" fill="#dbeafe"/>
    <path d="M 145 45 L 155 45 L 155 50 L 158 50 L 150 58 L 142 50 L 145 50 Z" fill="#3b82f6"/>
    
    <circle cx="500" cy="80" r="15" fill="#dcfce7"/>
    <path d="M 495 75 L 505 75 L 505 80 L 508 80 L 500 88 L 492 80 L 495 80 Z" fill="#10b981"/>
    
    <!-- Star ratings -->
    <g fill="#fbbf24">
      <polygon points="250,30 252,38 260,38 254,42 256,50 250,46 244,50 246,42 240,38 248,38"/>
      <polygon points="270,35 272,43 280,43 274,47 276,55 270,51 264,55 266,47 260,43 268,43"/>
      <polygon points="290,25 292,33 300,33 294,37 296,45 290,41 284,45 286,37 280,33 288,33"/>
    </g>
    
    <!-- Progress indicators -->
    <circle cx="350" cy="40" r="20" fill="#ffffff" stroke="#e5e7eb" stroke-width="2"/>
    <circle cx="350" cy="40" r="15" fill="none" stroke="#10b981" stroke-width="3" stroke-dasharray="60 20"/>
    <text x="350" y="45" text-anchor="middle" font-family="Arial" font-size="10" fill="#374151">75%</text>
  </g>
  
  <!-- Connection arrows -->
  <g id="arrows" opacity="0.4">
    <path d="M 350 120 Q 375 100 400 120" stroke="#3b82f6" stroke-width="2" fill="none" marker-end="url(#arrowhead)"/>
    <path d="M 350 250 Q 365 280 380 300" stroke="#10b981" stroke-width="2" fill="none" marker-end="url(#arrowhead)"/>
    <path d="M 530 280 Q 540 300 550 320" stroke="#f59e0b" stroke-width="2" fill="none" marker-end="url(#arrowhead)"/>
  </g>
  
  <!-- Arrow marker definition -->
  <defs>
    <marker id="arrowhead" markerWidth="10" markerHeight="7" refX="9" refY="3.5" orient="auto">
      <polygon points="0 0, 10 3.5, 0 7" fill="#6b7280"/>
    </marker>
  </defs>
</svg>
