<?xml version="1.0" standalone="no"?>
<!DOCTYPE svg PUBLIC "-//W3C//DTD SVG 20010904//EN"
 "http://www.w3.org/TR/2001/REC-SVG-20010904/DTD/svg10.dtd">
<svg version="1.0" xmlns="http://www.w3.org/2000/svg"
 width="1024.000000pt" height="1024.000000pt" viewBox="0 0 1024.000000 1024.000000"
 preserveAspectRatio="xMidYMid meet">

<g transform="translate(0.000000,1024.000000) scale(0.100000,-0.100000)"
fill="#000000" stroke="none">
<path d="M5165 9193 c-11 -2 -74 -29 -140 -57 -66 -29 -149 -66 -185 -81 -36
-15 -83 -35 -105 -45 -22 -10 -67 -29 -100 -43 -33 -14 -98 -42 -145 -62 -47
-21 -132 -57 -190 -82 -58 -24 -118 -50 -135 -58 -16 -7 -95 -41 -175 -74 -80
-34 -158 -68 -175 -76 -16 -7 -64 -28 -105 -45 -215 -91 -327 -145 -342 -164
-25 -30 -23 -89 5 -120 12 -13 60 -41 107 -61 47 -21 103 -45 125 -55 22 -10
74 -32 115 -50 41 -18 93 -40 115 -50 22 -10 74 -32 115 -50 41 -18 100 -43
130 -57 30 -14 69 -31 85 -38 17 -7 91 -40 165 -73 74 -33 239 -106 365 -162
127 -56 248 -110 270 -120 253 -113 247 -113 485 -6 96 43 256 114 355 158 99
45 200 89 224 100 24 11 130 57 235 103 105 45 251 110 323 143 73 33 142 63
153 67 20 6 20 3 20 -195 l0 -202 -39 -44 c-102 -116 -27 -284 127 -284 81 0
162 87 162 174 0 45 -32 110 -65 132 l-25 16 0 238 c0 259 -3 248 62 271 21 7
51 25 68 40 24 23 30 36 30 69 0 52 -32 84 -117 119 -32 13 -112 48 -178 77
-66 29 -228 98 -360 154 -132 56 -253 108 -270 115 -16 8 -84 38 -150 66 -66
28 -156 67 -200 86 -44 19 -120 52 -170 73 -49 21 -148 64 -220 95 -126 55
-199 72 -250 58z"/>
<path d="M3990 7524 l0 -286 -27 6 c-16 3 -80 13 -143 22 -63 8 -117 17 -120
19 -8 5 -359 43 -472 52 -87 7 -127 -5 -158 -45 -20 -24 -20 -47 -20 -1349 0
-1213 1 -1327 16 -1353 21 -35 70 -58 137 -65 28 -2 132 -12 230 -20 97 -9
183 -18 190 -20 6 -3 73 -14 147 -25 223 -33 490 -98 695 -171 272 -97 532
-247 628 -362 119 -143 120 -143 264 2 237 237 504 359 1088 495 39 9 133 25
210 36 77 11 147 22 155 25 14 4 88 12 350 36 137 13 193 30 209 65 8 18 11
375 11 1356 l0 1331 -36 33 c-28 27 -44 34 -75 34 -51 0 -427 -38 -499 -50
-30 -5 -107 -17 -170 -25 -63 -9 -127 -18 -142 -21 l-28 -6 0 286 c0 157 -2
286 -4 286 -3 0 -132 -55 -288 -121 -156 -67 -308 -132 -338 -144 -30 -13
-145 -62 -255 -109 -218 -95 -280 -116 -335 -116 -40 0 -140 32 -235 75 -33
15 -89 40 -125 55 -117 49 -353 150 -460 197 -58 25 -130 56 -160 69 -30 12
-92 39 -138 58 -46 20 -87 36 -92 36 -6 0 -10 -112 -10 -286z m153 -321 c-7
-2 -19 -2 -25 0 -7 3 -2 5 12 5 14 0 19 -2 13 -5z m2174 1 c-3 -3 -12 -4 -19
-1 -8 3 -5 6 6 6 11 1 17 -2 13 -5z m-3240 -66 c-3 -7 -5 -2 -5 12 0 14 2 19
5 13 2 -7 2 -19 0 -25z m1290 16 c-3 -3 -12 -4 -19 -1 -8 3 -5 6 6 6 11 1 17
-2 13 -5z m-907 -29 c327 -41 381 -50 635 -100 338 -68 616 -164 810 -280 64
-39 163 -132 192 -183 25 -43 28 -59 34 -176 5 -125 6 -130 33 -152 34 -30 76
-31 103 -1 18 19 22 38 25 142 3 106 7 126 30 170 83 157 350 309 718 407 312
83 861 177 1061 181 l84 2 3 -1211 2 -1212 -67 -5 c-135 -10 -449 -47 -478
-56 -16 -5 -68 -15 -115 -21 -175 -23 -563 -128 -687 -185 -17 -8 -35 -15 -39
-15 -8 0 -22 -6 -165 -74 -93 -44 -235 -132 -300 -187 l-49 -41 0 353 c0 397
1 389 -71 389 -48 0 -76 -28 -84 -84 -3 -23 -5 -173 -3 -333 2 -161 1 -293 0
-293 -2 0 -38 24 -80 54 -339 237 -916 413 -1567 477 -121 12 -226 23 -233 25
-11 3 -12 59 -8 291 3 159 5 703 5 1211 l1 922 48 0 c26 0 99 -7 162 -15z
m1235 -75 c13 -6 15 -9 5 -9 -8 0 -22 4 -30 9 -18 12 -2 12 25 0z m-1618 -127
c-2 -16 -4 -5 -4 22 0 28 2 40 4 28 2 -13 2 -35 0 -50z m4140 -76 c-2 -23 -3
-1 -3 48 0 50 1 68 3 42 2 -26 2 -67 0 -90z m-4140 -4 c-3 -10 -5 -2 -5 17 0
19 2 27 5 18 2 -10 2 -26 0 -35z m2013 -5 c0 -6 -6 -5 -15 2 -8 7 -15 14 -15
16 0 2 7 1 15 -2 8 -4 15 -11 15 -16z m45 -36 c-3 -3 -11 0 -18 7 -9 10 -8 11
6 5 10 -3 15 -9 12 -12z m-2058 -54 c-2 -13 -4 -5 -4 17 -1 22 1 32 4 23 2
-10 2 -28 0 -40z m2113 2 c6 -11 8 -20 6 -20 -3 0 -10 9 -16 20 -6 11 -8 20
-6 20 3 0 10 -9 16 -20z m2027 -62 c-3 -7 -5 -2 -5 12 0 14 2 19 5 13 2 -7 2
-19 0 -25z m0 -145 c-2 -16 -4 -3 -4 27 0 30 2 43 4 28 2 -16 2 -40 0 -55z
m-4140 -5 c-2 -13 -4 -5 -4 17 -1 22 1 32 4 23 2 -10 2 -28 0 -40z m0 -95 c-3
-10 -5 -4 -5 12 0 17 2 24 5 18 2 -7 2 -21 0 -30z m4140 -45 c-2 -18 -4 -6 -4
27 0 33 2 48 4 33 2 -15 2 -42 0 -60z m0 -520 c-1 -90 -3 -17 -3 162 0 179 2
252 3 163 2 -90 2 -236 0 -325z m-4140 -40 c-3 -8 -6 -5 -6 6 -1 11 2 17 5 13
3 -3 4 -12 1 -19z m4140 -255 c-3 -10 -5 -4 -5 12 0 17 2 24 5 18 2 -7 2 -21
0 -30z m0 -120 c-2 -16 -4 -5 -4 22 0 28 2 40 4 28 2 -13 2 -35 0 -50z m0
-205 c-2 -35 -3 -9 -3 57 0 66 1 94 3 63 2 -32 2 -86 0 -120z m0 -295 c-2 -38
-3 -7 -3 67 0 74 1 105 3 68 2 -38 2 -98 0 -135z m150 110 c-3 -10 -5 -2 -5
17 0 19 2 27 5 18 2 -10 2 -26 0 -35z m0 -115 c-2 -13 -4 -3 -4 22 0 25 2 35
4 23 2 -13 2 -33 0 -45z m0 -120 c-2 -18 -4 -6 -4 27 0 33 2 48 4 33 2 -15 2
-42 0 -60z m-2106 -5 c13 -15 12 -15 -8 -4 -24 12 -29 21 -14 21 5 0 15 -7 22
-17z m1956 -90 c-2 -16 -4 -3 -4 27 0 30 2 43 4 28 2 -16 2 -40 0 -55z m150
-60 c-3 -10 -5 -4 -5 12 0 17 2 24 5 18 2 -7 2 -21 0 -30z m-2090 -195 c-3 -7
-5 -2 -5 12 0 14 2 19 5 13 2 -7 2 -19 0 -25z m0 -150 c-3 -8 -6 -5 -6 6 -1
11 2 17 5 13 3 -3 4 -12 1 -19z"/>
<path d="M4460 6402 c-39 -19 -71 -47 -91 -79 -21 -33 -36 -72 -119 -313 -67
-195 -84 -234 -111 -247 -17 -9 -91 -13 -252 -13 -137 0 -236 -4 -248 -10 -29
-16 -51 -67 -44 -100 4 -16 20 -41 37 -55 l30 -25 261 0 c297 0 317 5 374 77
30 37 45 75 159 413 23 69 48 126 56 128 7 1 18 -13 26 -35 27 -80 97 -321
137 -468 13 -49 32 -121 43 -160 11 -38 33 -119 50 -180 51 -185 71 -219 145
-250 31 -13 45 -14 77 -4 74 22 89 51 187 336 26 79 52 141 58 140 5 -2 13
-19 17 -38 5 -19 25 -81 45 -139 28 -80 46 -114 74 -142 35 -36 40 -38 100
-38 61 0 64 1 103 43 42 44 46 54 110 287 22 79 42 146 102 345 13 44 31 106
41 138 16 56 36 73 46 40 18 -59 118 -335 135 -373 24 -56 55 -85 111 -105 36
-12 100 -15 353 -15 l310 0 29 29 c45 45 36 126 -18 150 -16 7 -121 11 -307
11 -256 0 -286 2 -304 18 -12 10 -41 75 -68 152 -80 231 -105 288 -139 323
-82 84 -202 65 -269 -42 -27 -44 -98 -269 -171 -546 -51 -195 -60 -225 -65
-225 -3 0 -25 57 -49 128 -61 180 -88 240 -119 268 -55 48 -157 19 -188 -54
-15 -36 -60 -169 -120 -354 -15 -49 -30 -88 -34 -88 -3 0 -14 35 -23 78 -17
81 -58 236 -75 287 -6 17 -27 91 -47 165 -50 184 -133 428 -160 467 -36 54
-72 76 -129 80 -28 1 -58 -1 -66 -5z"/>
<path d="M377 3253 c-4 -3 -7 -330 -7 -725 l0 -718 450 0 451 0 -3 113 -3 112
-320 5 -320 5 -3 608 -2 607 -118 0 c-65 0 -122 -3 -125 -7z"/>
<path d="M5570 2535 l0 -725 130 0 130 0 2 298 3 297 298 3 297 2 0 110 0 110
-300 0 -300 0 0 200 0 200 340 0 340 0 0 115 0 115 -470 0 -470 0 0 -725z"/>
<path d="M6680 3253 c0 -5 0 -330 -1 -723 l-1 -715 126 -3 126 -3 0 726 0 725
-125 0 c-69 0 -125 -3 -125 -7z"/>
<path d="M1770 2888 c-177 -23 -320 -151 -385 -343 -22 -68 -26 -95 -26 -199
0 -177 37 -291 125 -392 96 -109 229 -164 396 -164 206 0 359 89 444 257 42
85 44 83 -98 83 l-124 0 -22 -36 c-30 -47 -89 -83 -159 -96 -119 -22 -238 45
-281 158 -11 30 -20 68 -20 84 l0 30 364 0 363 0 6 38 c7 42 -7 212 -21 257
-32 103 -124 222 -211 271 -85 47 -227 69 -351 52z m178 -210 c85 -21 162
-128 150 -209 l-3 -24 -234 -3 c-129 -1 -238 1 -243 6 -4 4 2 37 14 72 24 72
84 139 140 157 45 15 120 15 176 1z"/>
<path d="M2890 2894 c-132 -14 -217 -46 -285 -105 -37 -33 -89 -131 -100 -190
-6 -35 -5 -36 25 -43 18 -3 70 -6 117 -6 l84 0 14 33 c36 80 85 107 200 107
85 0 119 -13 159 -60 19 -23 26 -43 26 -75 0 -38 -3 -44 -32 -58 -18 -9 -98
-27 -178 -41 -156 -28 -208 -42 -284 -76 -137 -62 -208 -230 -159 -376 30 -91
81 -146 169 -185 37 -17 75 -23 157 -27 136 -5 205 16 283 90 l51 48 7 -60 7
-60 122 0 122 0 -2 205 c-8 580 -9 608 -29 659 -24 63 -89 134 -151 168 -65
36 -229 62 -323 52z m250 -641 c0 -91 -14 -137 -56 -183 -65 -72 -213 -103
-294 -62 -72 35 -90 135 -35 192 38 40 104 65 219 84 55 10 107 21 115 26 9 5
24 10 34 10 14 0 17 -10 17 -67z"/>
<path d="M4065 2893 c-81 -18 -119 -38 -171 -91 l-54 -56 0 67 0 67 -125 0
-125 0 0 -535 0 -536 128 3 127 3 3 330 c4 307 5 332 24 370 49 97 107 130
234 130 l92 0 6 50 c3 28 6 82 6 121 l0 71 -37 7 c-41 6 -77 6 -108 -1z"/>
<path d="M4861 2889 c-78 -10 -161 -50 -207 -101 -18 -21 -38 -38 -44 -38 -6
0 -10 28 -10 65 l0 65 -125 0 -125 0 2 -532 3 -533 128 -3 127 -3 0 299 c0
332 7 390 54 461 47 70 102 96 202 96 71 0 85 -3 121 -27 32 -21 46 -40 62
-83 20 -53 21 -75 21 -400 l0 -345 126 0 125 0 -3 408 c-4 449 -3 442 -72 540
-71 102 -220 153 -385 131z"/>
<path d="M7562 2889 c-206 -26 -350 -144 -419 -341 -22 -64 -26 -90 -26 -208
-1 -117 2 -144 22 -200 35 -98 58 -138 109 -193 66 -69 114 -100 211 -132 77
-25 91 -27 200 -22 129 6 201 26 283 78 105 68 193 203 217 333 14 74 14 216
1 287 -5 30 -26 86 -45 126 -74 150 -192 238 -360 268 -95 16 -100 16 -193 4z
m193 -228 c53 -25 88 -64 122 -136 25 -55 27 -69 27 -185 0 -114 -2 -130 -26
-180 -64 -137 -194 -191 -332 -140 -67 26 -115 77 -147 156 -18 47 -23 79 -23
159 -1 163 53 277 154 327 49 24 172 24 225 -1z"/>
<path d="M8220 2872 c0 -7 23 -80 131 -412 70 -216 102 -319 139 -440 18 -58
40 -127 50 -155 l18 -50 136 -3 c159 -3 135 -24 191 168 20 69 40 136 45 150
5 14 23 72 40 130 33 111 68 225 76 250 6 18 40 -84 138 -415 15 -49 36 -115
46 -145 11 -30 24 -74 30 -97 l11 -43 140 0 139 0 10 26 c6 15 33 101 62 193
66 216 90 294 128 416 17 55 42 136 56 180 14 44 34 109 45 145 12 36 23 75
26 88 l5 23 -133 -3 -133 -3 -17 -65 c-10 -36 -32 -117 -49 -180 -45 -161 -65
-233 -89 -325 -12 -44 -25 -91 -30 -105 -25 -69 -23 -68 -36 -25 -7 22 -25 81
-40 130 -28 92 -55 180 -101 328 -14 45 -35 118 -47 162 l-22 80 -127 3 -126
3 -32 -103 c-18 -57 -40 -130 -50 -163 -16 -54 -38 -128 -116 -384 -14 -46
-29 -80 -33 -75 -5 5 -32 97 -61 204 -30 107 -66 240 -82 295 -15 55 -35 128
-45 163 l-17 62 -138 0 c-76 0 -138 -3 -138 -8z"/>
</g>
</svg>
